<svg id="Layer_1" data-name="Layer 1" xmlns="http://www.w3.org/2000/svg" viewBox="0 0 135.7 78.2"><defs><style>.cls-1{fill:#231f20;}</style></defs><title>VR_Icon</title><path class="cls-1" d="M120.4,0H15.3A15.3,15.3,0,0,0,0,15.3V63A15.3,15.3,0,0,0,15.3,78.2H44.6a6.4,6.4,0,0,0,6.1-4.4c3.2-9.7,9.1-22.4,18.1-22.4S83.2,64,86,73.7a6.3,6.3,0,0,0,6.1,4.6h28.3A15.3,15.3,0,0,0,135.7,63V15.3A15.3,15.3,0,0,0,120.4,0ZM32.7,49A16.5,16.5,0,1,1,49.2,32.5,16.5,16.5,0,0,1,32.7,49Zm71.7,0A16.5,16.5,0,1,1,121,32.5,16.5,16.5,0,0,1,104.5,49Z"/></svg>